<mxfile host="app.diagrams.net" modified="2024-04-03T06:15:52.354Z" agent="Mozilla/5.0 (Windows NT 10.0; Win64; x64) AppleWebKit/537.36 (KHTML, like Gecko) Chrome/123.0.0.0 Safari/537.36 Edg/123.0.0.0" etag="CJOqCSffNRdGw_fYAbbe" version="24.2.1" type="device">
  <diagram id="C5RBs43oDa-KdzZeNtuy" name="Page-1">
    <mxGraphModel dx="1066" dy="656" grid="1" gridSize="10" guides="1" tooltips="1" connect="1" arrows="1" fold="1" page="1" pageScale="1" pageWidth="827" pageHeight="1169" math="0" shadow="0">
      <root>
        <mxCell id="WIyWlLk6GJQsqaUBKTNV-0" />
        <mxCell id="WIyWlLk6GJQsqaUBKTNV-1" parent="WIyWlLk6GJQsqaUBKTNV-0" />
        <mxCell id="8azlKKxXiTjHYdrkumO6-4" style="edgeStyle=orthogonalEdgeStyle;rounded=0;orthogonalLoop=1;jettySize=auto;html=1;exitX=0.5;exitY=1;exitDx=0;exitDy=0;entryX=0.5;entryY=0;entryDx=0;entryDy=0;" edge="1" parent="WIyWlLk6GJQsqaUBKTNV-1" source="8azlKKxXiTjHYdrkumO6-0" target="8azlKKxXiTjHYdrkumO6-1">
          <mxGeometry relative="1" as="geometry" />
        </mxCell>
        <mxCell id="8azlKKxXiTjHYdrkumO6-0" value="Alku" style="rounded=1;whiteSpace=wrap;html=1;" vertex="1" parent="WIyWlLk6GJQsqaUBKTNV-1">
          <mxGeometry x="360" y="80" width="120" height="40" as="geometry" />
        </mxCell>
        <mxCell id="8azlKKxXiTjHYdrkumO6-3" style="edgeStyle=orthogonalEdgeStyle;rounded=0;orthogonalLoop=1;jettySize=auto;html=1;exitX=0;exitY=0.5;exitDx=0;exitDy=0;" edge="1" parent="WIyWlLk6GJQsqaUBKTNV-1" source="8azlKKxXiTjHYdrkumO6-1" target="8azlKKxXiTjHYdrkumO6-2">
          <mxGeometry relative="1" as="geometry" />
        </mxCell>
        <mxCell id="8azlKKxXiTjHYdrkumO6-7" style="edgeStyle=orthogonalEdgeStyle;rounded=0;orthogonalLoop=1;jettySize=auto;html=1;exitX=1;exitY=0.5;exitDx=0;exitDy=0;entryX=0;entryY=0.5;entryDx=0;entryDy=0;" edge="1" parent="WIyWlLk6GJQsqaUBKTNV-1" source="8azlKKxXiTjHYdrkumO6-1" target="8azlKKxXiTjHYdrkumO6-6">
          <mxGeometry relative="1" as="geometry" />
        </mxCell>
        <mxCell id="8azlKKxXiTjHYdrkumO6-1" value="Pelataanko tietokonetta vai toista pelaajaa vastaan?" style="rhombus;whiteSpace=wrap;html=1;" vertex="1" parent="WIyWlLk6GJQsqaUBKTNV-1">
          <mxGeometry x="350" y="150" width="140" height="90" as="geometry" />
        </mxCell>
        <mxCell id="8azlKKxXiTjHYdrkumO6-10" style="edgeStyle=orthogonalEdgeStyle;rounded=0;orthogonalLoop=1;jettySize=auto;html=1;exitX=0.5;exitY=1;exitDx=0;exitDy=0;entryX=0.5;entryY=0;entryDx=0;entryDy=0;" edge="1" parent="WIyWlLk6GJQsqaUBKTNV-1" source="8azlKKxXiTjHYdrkumO6-2" target="8azlKKxXiTjHYdrkumO6-9">
          <mxGeometry relative="1" as="geometry" />
        </mxCell>
        <mxCell id="8azlKKxXiTjHYdrkumO6-2" value="Tietokonetta vastaan pelatessa pelaaja saa aina päättää, pelaako ristillä vai nollalla. Sen lisäksi pelaaja saa aloittaa pelin." style="rounded=1;whiteSpace=wrap;html=1;" vertex="1" parent="WIyWlLk6GJQsqaUBKTNV-1">
          <mxGeometry x="60" y="142.5" width="170" height="105" as="geometry" />
        </mxCell>
        <mxCell id="8azlKKxXiTjHYdrkumO6-5" value="Ti&lt;span style=&quot;background-color: initial;&quot;&gt;etokone&lt;/span&gt;" style="text;html=1;align=center;verticalAlign=middle;whiteSpace=wrap;rounded=0;" vertex="1" parent="WIyWlLk6GJQsqaUBKTNV-1">
          <mxGeometry x="230" y="160" width="60" height="30" as="geometry" />
        </mxCell>
        <mxCell id="8azlKKxXiTjHYdrkumO6-12" style="edgeStyle=orthogonalEdgeStyle;rounded=0;orthogonalLoop=1;jettySize=auto;html=1;exitX=0.5;exitY=1;exitDx=0;exitDy=0;entryX=0.5;entryY=0;entryDx=0;entryDy=0;" edge="1" parent="WIyWlLk6GJQsqaUBKTNV-1" source="8azlKKxXiTjHYdrkumO6-6" target="8azlKKxXiTjHYdrkumO6-11">
          <mxGeometry relative="1" as="geometry" />
        </mxCell>
        <mxCell id="8azlKKxXiTjHYdrkumO6-6" value="Kahden pelaajan pelissä aloittava pelaaja pelaa ristillä." style="rounded=1;whiteSpace=wrap;html=1;" vertex="1" parent="WIyWlLk6GJQsqaUBKTNV-1">
          <mxGeometry x="620" y="161.25" width="140" height="67.5" as="geometry" />
        </mxCell>
        <mxCell id="8azlKKxXiTjHYdrkumO6-8" value="Toinen pelaaja" style="text;html=1;align=center;verticalAlign=middle;whiteSpace=wrap;rounded=0;" vertex="1" parent="WIyWlLk6GJQsqaUBKTNV-1">
          <mxGeometry x="550" y="161" width="60" height="30" as="geometry" />
        </mxCell>
        <mxCell id="8azlKKxXiTjHYdrkumO6-26" style="edgeStyle=orthogonalEdgeStyle;rounded=0;orthogonalLoop=1;jettySize=auto;html=1;exitX=0.5;exitY=1;exitDx=0;exitDy=0;entryX=0.5;entryY=0;entryDx=0;entryDy=0;" edge="1" parent="WIyWlLk6GJQsqaUBKTNV-1" source="8azlKKxXiTjHYdrkumO6-9" target="8azlKKxXiTjHYdrkumO6-25">
          <mxGeometry relative="1" as="geometry" />
        </mxCell>
        <mxCell id="8azlKKxXiTjHYdrkumO6-9" value="Pelaaja valitsee, pelaako ristillä vai nollalla." style="rhombus;whiteSpace=wrap;html=1;" vertex="1" parent="WIyWlLk6GJQsqaUBKTNV-1">
          <mxGeometry x="67.5" y="290" width="155" height="110" as="geometry" />
        </mxCell>
        <mxCell id="8azlKKxXiTjHYdrkumO6-14" style="edgeStyle=orthogonalEdgeStyle;rounded=0;orthogonalLoop=1;jettySize=auto;html=1;exitX=0.75;exitY=1;exitDx=0;exitDy=0;entryX=0.5;entryY=0;entryDx=0;entryDy=0;" edge="1" parent="WIyWlLk6GJQsqaUBKTNV-1" source="8azlKKxXiTjHYdrkumO6-11" target="8azlKKxXiTjHYdrkumO6-13">
          <mxGeometry relative="1" as="geometry" />
        </mxCell>
        <mxCell id="8azlKKxXiTjHYdrkumO6-20" style="edgeStyle=orthogonalEdgeStyle;rounded=0;orthogonalLoop=1;jettySize=auto;html=1;exitX=0.25;exitY=1;exitDx=0;exitDy=0;entryX=0.5;entryY=0;entryDx=0;entryDy=0;" edge="1" parent="WIyWlLk6GJQsqaUBKTNV-1" source="8azlKKxXiTjHYdrkumO6-11" target="8azlKKxXiTjHYdrkumO6-17">
          <mxGeometry relative="1" as="geometry" />
        </mxCell>
        <mxCell id="8azlKKxXiTjHYdrkumO6-23" style="edgeStyle=orthogonalEdgeStyle;rounded=0;orthogonalLoop=1;jettySize=auto;html=1;exitX=0;exitY=0.75;exitDx=0;exitDy=0;entryX=0.5;entryY=0;entryDx=0;entryDy=0;" edge="1" parent="WIyWlLk6GJQsqaUBKTNV-1" source="8azlKKxXiTjHYdrkumO6-11" target="8azlKKxXiTjHYdrkumO6-21">
          <mxGeometry relative="1" as="geometry" />
        </mxCell>
        <mxCell id="8azlKKxXiTjHYdrkumO6-11" value="Peli päättyy, kun toisella pelaajalla on kolme omaa merkkiä peräkkäin vinossa, pysty- tai vaakasuunnassa. Peli voi myös päättyä tasapeliin, jolloin kaikki ruudut täyttyvät, eikä kumpikaan pelaaja saa kolmen suoraa." style="rounded=1;whiteSpace=wrap;html=1;" vertex="1" parent="WIyWlLk6GJQsqaUBKTNV-1">
          <mxGeometry x="590" y="270" width="200" height="120" as="geometry" />
        </mxCell>
        <mxCell id="8azlKKxXiTjHYdrkumO6-16" style="edgeStyle=orthogonalEdgeStyle;rounded=0;orthogonalLoop=1;jettySize=auto;html=1;exitX=0.5;exitY=1;exitDx=0;exitDy=0;entryX=0.5;entryY=0;entryDx=0;entryDy=0;" edge="1" parent="WIyWlLk6GJQsqaUBKTNV-1" source="8azlKKxXiTjHYdrkumO6-13" target="8azlKKxXiTjHYdrkumO6-15">
          <mxGeometry relative="1" as="geometry" />
        </mxCell>
        <mxCell id="8azlKKxXiTjHYdrkumO6-13" value="Pelaaja 1 voittaa." style="rounded=1;whiteSpace=wrap;html=1;" vertex="1" parent="WIyWlLk6GJQsqaUBKTNV-1">
          <mxGeometry x="680" y="430" width="120" height="60" as="geometry" />
        </mxCell>
        <mxCell id="8azlKKxXiTjHYdrkumO6-15" value="Loppu" style="rounded=1;whiteSpace=wrap;html=1;" vertex="1" parent="WIyWlLk6GJQsqaUBKTNV-1">
          <mxGeometry x="680" y="520" width="120" height="40" as="geometry" />
        </mxCell>
        <mxCell id="8azlKKxXiTjHYdrkumO6-19" style="edgeStyle=orthogonalEdgeStyle;rounded=0;orthogonalLoop=1;jettySize=auto;html=1;exitX=0.5;exitY=1;exitDx=0;exitDy=0;" edge="1" parent="WIyWlLk6GJQsqaUBKTNV-1" source="8azlKKxXiTjHYdrkumO6-17" target="8azlKKxXiTjHYdrkumO6-18">
          <mxGeometry relative="1" as="geometry" />
        </mxCell>
        <mxCell id="8azlKKxXiTjHYdrkumO6-17" value="Pelaaja 2 voittaa." style="rounded=1;whiteSpace=wrap;html=1;" vertex="1" parent="WIyWlLk6GJQsqaUBKTNV-1">
          <mxGeometry x="540" y="430" width="120" height="60" as="geometry" />
        </mxCell>
        <mxCell id="8azlKKxXiTjHYdrkumO6-18" value="Loppu" style="rounded=1;whiteSpace=wrap;html=1;" vertex="1" parent="WIyWlLk6GJQsqaUBKTNV-1">
          <mxGeometry x="540" y="520" width="120" height="40" as="geometry" />
        </mxCell>
        <mxCell id="8azlKKxXiTjHYdrkumO6-24" style="edgeStyle=orthogonalEdgeStyle;rounded=0;orthogonalLoop=1;jettySize=auto;html=1;exitX=0.5;exitY=1;exitDx=0;exitDy=0;entryX=0.5;entryY=0;entryDx=0;entryDy=0;" edge="1" parent="WIyWlLk6GJQsqaUBKTNV-1" source="8azlKKxXiTjHYdrkumO6-21" target="8azlKKxXiTjHYdrkumO6-22">
          <mxGeometry relative="1" as="geometry" />
        </mxCell>
        <mxCell id="8azlKKxXiTjHYdrkumO6-21" value="Tasapeli" style="rounded=1;whiteSpace=wrap;html=1;" vertex="1" parent="WIyWlLk6GJQsqaUBKTNV-1">
          <mxGeometry x="380" y="430" width="120" height="60" as="geometry" />
        </mxCell>
        <mxCell id="8azlKKxXiTjHYdrkumO6-22" value="Loppu" style="rounded=1;whiteSpace=wrap;html=1;" vertex="1" parent="WIyWlLk6GJQsqaUBKTNV-1">
          <mxGeometry x="380" y="520" width="120" height="40" as="geometry" />
        </mxCell>
        <mxCell id="8azlKKxXiTjHYdrkumO6-30" style="edgeStyle=orthogonalEdgeStyle;rounded=0;orthogonalLoop=1;jettySize=auto;html=1;exitX=0.25;exitY=1;exitDx=0;exitDy=0;entryX=0.5;entryY=0;entryDx=0;entryDy=0;" edge="1" parent="WIyWlLk6GJQsqaUBKTNV-1" source="8azlKKxXiTjHYdrkumO6-25" target="8azlKKxXiTjHYdrkumO6-27">
          <mxGeometry relative="1" as="geometry" />
        </mxCell>
        <mxCell id="8azlKKxXiTjHYdrkumO6-34" style="edgeStyle=orthogonalEdgeStyle;rounded=0;orthogonalLoop=1;jettySize=auto;html=1;exitX=0.75;exitY=1;exitDx=0;exitDy=0;entryX=0.5;entryY=0;entryDx=0;entryDy=0;" edge="1" parent="WIyWlLk6GJQsqaUBKTNV-1" source="8azlKKxXiTjHYdrkumO6-25" target="8azlKKxXiTjHYdrkumO6-31">
          <mxGeometry relative="1" as="geometry" />
        </mxCell>
        <mxCell id="8azlKKxXiTjHYdrkumO6-38" style="edgeStyle=orthogonalEdgeStyle;rounded=0;orthogonalLoop=1;jettySize=auto;html=1;exitX=1;exitY=0.75;exitDx=0;exitDy=0;entryX=0.5;entryY=0;entryDx=0;entryDy=0;" edge="1" parent="WIyWlLk6GJQsqaUBKTNV-1" source="8azlKKxXiTjHYdrkumO6-25" target="8azlKKxXiTjHYdrkumO6-36">
          <mxGeometry relative="1" as="geometry">
            <Array as="points">
              <mxPoint x="280" y="530" />
              <mxPoint x="280" y="570" />
              <mxPoint x="400" y="570" />
            </Array>
          </mxGeometry>
        </mxCell>
        <mxCell id="8azlKKxXiTjHYdrkumO6-25" value="Peli päättyy, kun joko pelaajalla tai tietokoneella on kolme omaa merkkiä peräkkäin vinossa, pysty- tai vaakasuunnassa. Peli voi myös päättyä tasapeliin, jolloin kaikki ruudut täyttyvät, eikä kumpikaan osapuoli saa kolmen suoraa." style="rounded=1;whiteSpace=wrap;html=1;" vertex="1" parent="WIyWlLk6GJQsqaUBKTNV-1">
          <mxGeometry x="37.5" y="440" width="215" height="120" as="geometry" />
        </mxCell>
        <mxCell id="8azlKKxXiTjHYdrkumO6-29" style="edgeStyle=orthogonalEdgeStyle;rounded=0;orthogonalLoop=1;jettySize=auto;html=1;exitX=0.5;exitY=1;exitDx=0;exitDy=0;entryX=0.5;entryY=0;entryDx=0;entryDy=0;" edge="1" parent="WIyWlLk6GJQsqaUBKTNV-1" source="8azlKKxXiTjHYdrkumO6-27" target="8azlKKxXiTjHYdrkumO6-28">
          <mxGeometry relative="1" as="geometry" />
        </mxCell>
        <mxCell id="8azlKKxXiTjHYdrkumO6-27" value="Pelaaja voittaa." style="rounded=1;whiteSpace=wrap;html=1;" vertex="1" parent="WIyWlLk6GJQsqaUBKTNV-1">
          <mxGeometry x="30" y="600" width="120" height="60" as="geometry" />
        </mxCell>
        <mxCell id="8azlKKxXiTjHYdrkumO6-28" value="Loppu" style="rounded=1;whiteSpace=wrap;html=1;" vertex="1" parent="WIyWlLk6GJQsqaUBKTNV-1">
          <mxGeometry x="30" y="680" width="120" height="40" as="geometry" />
        </mxCell>
        <mxCell id="8azlKKxXiTjHYdrkumO6-35" style="edgeStyle=orthogonalEdgeStyle;rounded=0;orthogonalLoop=1;jettySize=auto;html=1;exitX=0.5;exitY=1;exitDx=0;exitDy=0;entryX=0.5;entryY=0;entryDx=0;entryDy=0;" edge="1" parent="WIyWlLk6GJQsqaUBKTNV-1" source="8azlKKxXiTjHYdrkumO6-31" target="8azlKKxXiTjHYdrkumO6-32">
          <mxGeometry relative="1" as="geometry" />
        </mxCell>
        <mxCell id="8azlKKxXiTjHYdrkumO6-31" value="Tietokone voittaa." style="rounded=1;whiteSpace=wrap;html=1;" vertex="1" parent="WIyWlLk6GJQsqaUBKTNV-1">
          <mxGeometry x="180" y="600" width="120" height="60" as="geometry" />
        </mxCell>
        <mxCell id="8azlKKxXiTjHYdrkumO6-32" value="Loppu" style="rounded=1;whiteSpace=wrap;html=1;" vertex="1" parent="WIyWlLk6GJQsqaUBKTNV-1">
          <mxGeometry x="180" y="680" width="120" height="40" as="geometry" />
        </mxCell>
        <mxCell id="8azlKKxXiTjHYdrkumO6-39" style="edgeStyle=orthogonalEdgeStyle;rounded=0;orthogonalLoop=1;jettySize=auto;html=1;exitX=0.5;exitY=1;exitDx=0;exitDy=0;entryX=0.5;entryY=0;entryDx=0;entryDy=0;" edge="1" parent="WIyWlLk6GJQsqaUBKTNV-1" source="8azlKKxXiTjHYdrkumO6-36" target="8azlKKxXiTjHYdrkumO6-37">
          <mxGeometry relative="1" as="geometry" />
        </mxCell>
        <mxCell id="8azlKKxXiTjHYdrkumO6-36" value="Tasapeli" style="rounded=1;whiteSpace=wrap;html=1;" vertex="1" parent="WIyWlLk6GJQsqaUBKTNV-1">
          <mxGeometry x="330" y="600" width="120" height="60" as="geometry" />
        </mxCell>
        <mxCell id="8azlKKxXiTjHYdrkumO6-37" value="Loppu" style="rounded=1;whiteSpace=wrap;html=1;" vertex="1" parent="WIyWlLk6GJQsqaUBKTNV-1">
          <mxGeometry x="330" y="680" width="120" height="40" as="geometry" />
        </mxCell>
      </root>
    </mxGraphModel>
  </diagram>
</mxfile>
